<svg width="259" height="22" viewBox="0 0 259 22" fill="none" xmlns="http://www.w3.org/2000/svg">
<path d="M5.12 22C4.3 22 3.55 21.8 2.87 21.4C2.21 21 1.68 20.47 1.28 19.81C0.88 19.13 0.68 18.38 0.68 17.56V4.84C0.68 4.02 0.88 3.28 1.28 2.62C1.68 1.94 2.21 1.4 2.87 0.999999C3.55 0.599999 4.3 0.399999 5.12 0.399999H22.22V5.08H6.32C6 5.08 5.75 5.16 5.57 5.32C5.41 5.48 5.33 5.73 5.33 6.07V16.33C5.33 16.65 5.41 16.9 5.57 17.08C5.75 17.24 6 17.32 6.32 17.32H22.22V22H5.12ZM32.188 22V13.93L22.198 0.399999H27.748L34.528 8.92L41.278 0.399999H46.888L36.868 13.96V22H32.188ZM47.2079 22V0.399999H63.5279C64.3279 0.399999 65.0579 0.599999 65.7179 0.999999C66.3979 1.4 66.9379 1.94 67.3379 2.62C67.7579 3.28 67.9679 4.02 67.9679 4.84V8.89C67.9679 9.15 67.9479 9.4 67.9079 9.64C67.8879 9.86 67.8379 10.07 67.7579 10.27C68.0579 10.65 68.3079 11.09 68.5079 11.59C68.7079 12.09 68.8079 12.59 68.8079 13.09V17.56C68.8079 18.36 68.5979 19.1 68.1779 19.78C67.7779 20.46 67.2379 21 66.5579 21.4C65.8979 21.8 65.1579 22 64.3379 22H47.2079ZM51.8579 17.32H64.0979V13.36H51.8579V17.32ZM51.8579 8.68H63.2579V5.08H51.8579V8.68ZM70.9388 22V0.399999H90.8888V5.08H75.6488V8.86H87.9188V13.54H75.6488V17.32H90.8888V22H70.9388ZM109.418 22L103.148 14.53H109.238L114.218 20.41V22H109.418ZM92.6476 22V0.429999H109.778C110.598 0.429999 111.338 0.629999 111.998 1.03C112.678 1.43 113.218 1.97 113.618 2.65C114.038 3.33 114.248 4.07 114.248 4.87V10.45C114.248 11.25 114.038 11.99 113.618 12.67C113.218 13.35 112.678 13.89 111.998 14.29C111.338 14.69 110.598 14.89 109.778 14.89L97.2976 14.92V22H92.6476ZM97.2976 10.21H109.538V5.08H97.2976V10.21ZM129.111 22C128.291 22 127.541 21.8 126.861 21.4C126.201 21 125.671 20.47 125.271 19.81C124.871 19.13 124.671 18.38 124.671 17.56V4.84C124.671 4.02 124.871 3.28 125.271 2.62C125.671 1.94 126.201 1.4 126.861 0.999999C127.541 0.599999 128.291 0.399999 129.111 0.399999H146.211V5.08H130.311C129.991 5.08 129.741 5.16 129.561 5.32C129.401 5.48 129.321 5.73 129.321 6.07V16.33C129.321 16.65 129.401 16.9 129.561 17.08C129.741 17.24 129.991 17.32 130.311 17.32H146.211V22H129.111ZM148.199 22V0.399999H168.149V5.08H152.909V8.86H165.179V13.54H152.909V17.32H168.149V22H148.199ZM169.908 22V0.399999H174.708L186.798 14.8V0.399999H191.508V22H186.708L174.558 7.54V22H169.908ZM201.049 22V5.08H192.589V0.399999H214.189V5.08H205.729V22H201.049ZM215.293 22V0.399999H235.243V5.08H220.003V8.86H232.273V13.54H220.003V17.32H235.243V22H215.293ZM253.771 22L247.501 14.53H253.591L258.571 20.41V22H253.771ZM237.001 22V0.429999H254.131C254.951 0.429999 255.691 0.629999 256.351 1.03C257.031 1.43 257.571 1.97 257.971 2.65C258.391 3.33 258.601 4.07 258.601 4.87V10.45C258.601 11.25 258.391 11.99 257.971 12.67C257.571 13.35 257.031 13.89 256.351 14.29C255.691 14.69 254.951 14.89 254.131 14.89L241.651 14.92V22H237.001ZM241.651 10.21H253.891V5.08H241.651V10.21Z" fill="black"/>
</svg>
